<svg width="48" height="48" viewBox="0 0 48 48" fill="none" xmlns="http://www.w3.org/2000/svg">
<path d="M38.0633 16.8286V40.58C38.0633 41.1996 37.8172 41.7938 37.3791 42.2319C36.941 42.67 36.3467 42.9162 35.7271 42.9162H10.8076C10.188 42.9162 9.59382 42.67 9.15569 42.2319C8.71757 41.7938 8.47144 41.1996 8.47144 40.58V16.8286L23.2072 6.0459L38.0633 16.8286Z" fill="#E1E1E3"/>
<path d="M34.5591 15.6602V40.5798C34.5591 41.1994 34.313 41.7936 33.8748 42.2317C33.4367 42.6698 32.8425 42.916 32.2229 42.916H35.7272C36.3468 42.916 36.941 42.6698 37.3792 42.2317C37.8173 41.7936 38.0634 41.1994 38.0634 40.5798V16.8283L34.5591 15.6602Z" fill="#C8C5CC"/>
<path d="M40.5726 21.0772L23.2674 7.71721L5.96224 21.0772C5.8816 21.1394 5.78512 21.1779 5.68374 21.1881C5.58237 21.1983 5.48017 21.1799 5.38872 21.135C5.29728 21.09 5.22026 21.0204 5.16639 20.9339C5.11253 20.8474 5.08398 20.7476 5.08398 20.6457V18.8248C5.08398 18.6462 5.12493 18.4699 5.20369 18.3096C5.28245 18.1493 5.39692 18.0092 5.5383 17.9001L22.6012 4.72726C22.792 4.57992 23.0263 4.5 23.2674 4.5C23.5085 4.5 23.7428 4.57992 23.9336 4.72726L40.9966 17.9001C41.138 18.0092 41.2524 18.1493 41.3312 18.3096C41.4099 18.4699 41.4509 18.6462 41.4509 18.8248V20.6457C41.4509 20.7476 41.4223 20.8474 41.3685 20.9339C41.3146 21.0203 41.2376 21.09 41.1461 21.1349C41.0547 21.1798 40.9525 21.1982 40.8511 21.188C40.7497 21.1778 40.6533 21.1394 40.5726 21.0772Z" fill="#1A1A1A"/>
<path d="M40.9966 17.9001L23.9338 4.72726C23.7429 4.57992 23.5086 4.5 23.2675 4.5C23.0264 4.5 22.7921 4.57992 22.6013 4.72726L22.0994 5.11468L38.6604 17.9001C38.8018 18.0092 38.9163 18.1493 38.995 18.3096C39.0738 18.4699 39.1147 18.6462 39.1147 18.8248V19.9516L40.5727 21.0772C40.6533 21.1394 40.7498 21.1779 40.8512 21.1881C40.9525 21.1983 41.0547 21.1799 41.1462 21.135C41.2376 21.09 41.3146 21.0204 41.3685 20.9339C41.4224 20.8474 41.4509 20.7476 41.4509 20.6457V18.8248C41.4509 18.6462 41.41 18.4699 41.3312 18.3096C41.2525 18.1493 41.138 18.0092 40.9966 17.9001Z" fill="#1A1A1A"/>
<path d="M31.9114 30.1058H25.6036C24.9585 30.1058 24.4355 30.6288 24.4355 31.2739V36.7735C24.4355 37.4187 24.9585 37.9416 25.6036 37.9416H31.9114C32.5565 37.9416 33.0795 37.4187 33.0795 36.7735V31.2739C33.0795 30.6288 32.5565 30.1058 31.9114 30.1058Z" fill="#1A1A1A"/>
<path d="M41.451 43.5H5.08405C4.92915 43.5 4.7806 43.4385 4.67106 43.3289C4.56153 43.2194 4.5 43.0709 4.5 42.916C4.5 42.7611 4.56153 42.6125 4.67106 42.503C4.7806 42.3934 4.92915 42.3319 5.08405 42.3319H41.451C41.6059 42.3319 41.7544 42.3934 41.8639 42.503C41.9735 42.6125 42.035 42.7611 42.035 42.916C42.035 43.0709 41.9735 43.2194 41.8639 43.3289C41.7544 43.4385 41.6059 43.5 41.451 43.5Z" fill="#1A1A1A"/>
<path d="M20.9314 30.1058H14.6237C13.9785 30.1058 13.4556 30.6288 13.4556 31.2739V36.7735C13.4556 37.4187 13.9785 37.9416 14.6237 37.9416H20.9314C21.5765 37.9416 22.0995 37.4187 22.0995 36.7735V31.2739C22.0995 30.6288 21.5765 30.1058 20.9314 30.1058Z" fill="#1A1A1A"/>
<path d="M30.6065 36.457C30.5298 36.4571 30.4538 36.442 30.383 36.4127C30.3121 36.3833 30.2477 36.3402 30.1935 36.2859L26.4955 32.5879C26.4413 32.5337 26.3983 32.4693 26.3689 32.3984C26.3396 32.3276 26.3245 32.2516 26.3245 32.1749C26.3245 32.0982 26.3396 32.0223 26.3689 31.9514C26.3983 31.8805 26.4413 31.8162 26.4955 31.7619C26.5498 31.7077 26.6142 31.6647 26.685 31.6353C26.7559 31.606 26.8318 31.5909 26.9085 31.5909C26.9852 31.5909 27.0612 31.606 27.1321 31.6353C27.2029 31.6647 27.2673 31.7077 27.3215 31.7619L31.0195 35.4599C31.1012 35.5416 31.1569 35.6456 31.1794 35.7589C31.2019 35.8722 31.1904 35.9897 31.1462 36.0964C31.102 36.2032 31.0271 36.2944 30.9311 36.3586C30.835 36.4227 30.7221 36.457 30.6065 36.457Z" fill="white"/>
<path d="M26.9085 36.457C26.793 36.457 26.6801 36.4227 26.584 36.3586C26.488 36.2944 26.4131 36.2032 26.3689 36.0964C26.3247 35.9897 26.3131 35.8722 26.3357 35.7589C26.3582 35.6456 26.4139 35.5416 26.4956 35.4599L30.1936 31.7619C30.3031 31.6524 30.4517 31.5909 30.6066 31.5909C30.7615 31.5909 30.91 31.6524 31.0196 31.7619C31.1291 31.8715 31.1906 32.02 31.1906 32.1749C31.1906 32.3298 31.1291 32.4784 31.0196 32.5879L27.3216 36.2859C27.2674 36.3402 27.203 36.3833 27.1321 36.4127C27.0613 36.442 26.9853 36.4571 26.9085 36.457Z" fill="white"/>
<path d="M31.9114 19.9335H25.6036C24.9585 19.9335 24.4355 20.4565 24.4355 21.1016V26.6013C24.4355 27.2464 24.9585 27.7694 25.6036 27.7694H31.9114C32.5565 27.7694 33.0795 27.2464 33.0795 26.6013V21.1016C33.0795 20.4565 32.5565 19.9335 31.9114 19.9335Z" fill="#1A1A1A"/>
<path d="M19.7631 34.6078H15.7916C15.6367 34.6078 15.4881 34.5463 15.3786 34.4368C15.2691 34.3272 15.2075 34.1787 15.2075 34.0238C15.2075 33.8689 15.2691 33.7203 15.3786 33.6108C15.4881 33.5013 15.6367 33.4397 15.7916 33.4397H19.7631C19.918 33.4397 20.0666 33.5013 20.1761 33.6108C20.2856 33.7203 20.3472 33.8689 20.3472 34.0238C20.3472 34.1787 20.2856 34.3272 20.1761 34.4368C20.0666 34.5463 19.918 34.6078 19.7631 34.6078Z" fill="white"/>
<path d="M17.7774 32.8557C18.1 32.8557 18.3615 32.5942 18.3615 32.2716C18.3615 31.949 18.1 31.6876 17.7774 31.6876C17.4548 31.6876 17.1934 31.949 17.1934 32.2716C17.1934 32.5942 17.4548 32.8557 17.7774 32.8557Z" fill="white"/>
<path d="M17.7774 36.36C18.1 36.36 18.3615 36.0985 18.3615 35.7759C18.3615 35.4534 18.1 35.1919 17.7774 35.1919C17.4548 35.1919 17.1934 35.4534 17.1934 35.7759C17.1934 36.0985 17.4548 36.36 17.7774 36.36Z" fill="white"/>
<path d="M30.7433 24.4356H26.7718C26.6169 24.4356 26.4683 24.3741 26.3588 24.2646C26.2493 24.155 26.1877 24.0065 26.1877 23.8516C26.1877 23.6967 26.2493 23.5481 26.3588 23.4386C26.4683 23.3291 26.6169 23.2675 26.7718 23.2675H30.7433C30.8982 23.2675 31.0468 23.3291 31.1563 23.4386C31.2659 23.5481 31.3274 23.6967 31.3274 23.8516C31.3274 24.0065 31.2659 24.155 31.1563 24.2646C31.0468 24.3741 30.8982 24.4356 30.7433 24.4356Z" fill="white"/>
<path d="M20.9314 19.9335H14.6237C13.9785 19.9335 13.4556 20.4565 13.4556 21.1016V26.6013C13.4556 27.2464 13.9785 27.7694 14.6237 27.7694H20.9314C21.5765 27.7694 22.0995 27.2464 22.0995 26.6013V21.1016C22.0995 20.4565 21.5765 19.9335 20.9314 19.9335Z" fill="#1A1A1A"/>
<path d="M17.7774 26.2631C17.6225 26.2631 17.474 26.2016 17.3644 26.0921C17.2549 25.9826 17.1934 25.834 17.1934 25.6791V22.0246C17.1934 21.8697 17.2549 21.7211 17.3644 21.6116C17.474 21.5021 17.6225 21.4405 17.7774 21.4405C17.9323 21.4405 18.0809 21.5021 18.1904 21.6116C18.2999 21.7211 18.3615 21.8697 18.3615 22.0246V25.6792C18.3615 25.8341 18.2999 25.9826 18.1904 26.0922C18.0809 26.2017 17.9323 26.2631 17.7774 26.2631Z" fill="white"/>
<path d="M19.6047 24.4356H15.9503C15.7954 24.4356 15.6468 24.3741 15.5373 24.2646C15.4277 24.155 15.3662 24.0065 15.3662 23.8516C15.3662 23.6967 15.4277 23.5481 15.5373 23.4386C15.6468 23.3291 15.7954 23.2675 15.9503 23.2675H19.6047C19.7596 23.2675 19.9082 23.3291 20.0177 23.4386C20.1272 23.5481 20.1888 23.6967 20.1888 23.8516C20.1888 24.0065 20.1272 24.155 20.0177 24.2646C19.9082 24.3741 19.7596 24.4356 19.6047 24.4356Z" fill="white"/>
<path d="M23.2675 16.0496C24.3212 16.0496 25.1754 15.1954 25.1754 14.1417C25.1754 13.088 24.3212 12.2338 23.2675 12.2338C22.2138 12.2338 21.3596 13.088 21.3596 14.1417C21.3596 15.1954 22.2138 16.0496 23.2675 16.0496Z" fill="#C8C5CC"/>
<path d="M23.2674 12.2338C23.1569 12.2341 23.0467 12.2439 22.938 12.2633C23.3794 12.3414 23.7792 12.5725 24.0672 12.916C24.3552 13.2595 24.5131 13.6934 24.5131 14.1417C24.5131 14.59 24.3552 15.0239 24.0672 15.3674C23.7792 15.7109 23.3794 15.9419 22.938 16.0201C23.1985 16.0658 23.4656 16.0569 23.7225 15.9938C23.9793 15.9308 24.2203 15.8151 24.43 15.6539C24.6397 15.4928 24.8136 15.2898 24.9407 15.0579C25.0678 14.8259 25.1452 14.5701 25.1682 14.3066C25.1911 14.0432 25.159 13.7778 25.0739 13.5274C24.9887 13.277 24.8525 13.047 24.6737 12.8521C24.495 12.6572 24.2777 12.5016 24.0356 12.3951C23.7935 12.2887 23.5319 12.2337 23.2674 12.2338Z" fill="#AEADB3"/>
</svg>
