<svg width="40" height="40" viewBox="0 0 40 40" fill="none" xmlns="http://www.w3.org/2000/svg">
<path d="M17.989 4.59097C18.515 4.20687 19.1495 3.99988 19.8008 3.99988C20.4522 3.99988 21.0866 4.20687 21.6127 4.59097L34.6413 14.0996C36.3566 15.3496 35.4735 18.0621 33.3527 18.0673H6.24723C4.12641 18.0621 3.24507 15.3496 4.95858 14.0996L17.989 4.59097ZM21.5565 11.4819C21.5565 11.0163 21.3715 10.5697 21.0423 10.2405C20.713 9.91121 20.2665 9.72624 19.8008 9.72624C19.3352 9.72624 18.8887 9.91121 18.5594 10.2405C18.2302 10.5697 18.0452 11.0163 18.0452 11.4819C18.0452 11.9475 18.2302 12.3941 18.5594 12.7233C18.8887 13.0526 19.3352 13.2375 19.8008 13.2375C20.2665 13.2375 20.713 13.0526 21.0423 12.7233C21.3715 12.3941 21.5565 11.9475 21.5565 11.4819ZM18.4841 28.5995H14.9728V19.8212H18.4841V28.5995ZM24.6289 28.5995H21.1176V19.8212H24.6289V28.5995ZM31.2125 28.5995H27.2623V19.8212H31.2125V28.5995ZM31.6515 30.3551H7.95021C6.90255 30.3551 5.8978 30.7713 5.15699 31.5121C4.41618 32.2529 4 33.2577 4 34.3053V35.1831C4 35.9117 4.5899 36.4999 5.31674 36.4999H34.2849C34.6342 36.4999 34.9691 36.3612 35.216 36.1142C35.4629 35.8673 35.6017 35.5324 35.6017 35.1831V34.3053C35.6017 33.2577 35.1855 32.2529 34.4447 31.5121C33.7039 30.7713 32.6991 30.3551 31.6515 30.3551ZM12.3393 28.5995H8.38912V19.8212H12.3393V28.5995Z" fill="#1A1A1A"/>
</svg>
