<svg width="19" height="18" viewBox="0 0 19 18" fill="none" xmlns="http://www.w3.org/2000/svg">
<path d="M15.1607 0H3.58929C2.7368 0 1.91924 0.338647 1.31644 0.941442C0.713647 1.54424 0.375 2.3618 0.375 3.21429V14.7857C0.375 15.6382 0.713647 16.4558 1.31644 17.0586C1.91924 17.6614 2.7368 18 3.58929 18H15.1607C16.0132 18 16.8308 17.6614 17.4336 17.0586C18.0364 16.4558 18.375 15.6382 18.375 14.7857V3.21429C18.375 2.3618 18.0364 1.54424 17.4336 0.941442C16.8308 0.338647 16.0132 0 15.1607 0ZM5.27164 9.558C5.29038 9.44596 5.34365 9.34258 5.424 9.26229L8.75914 5.92714L10.9288 8.09679L7.59364 11.4319C7.51335 11.5123 7.40997 11.5655 7.29793 11.5843L5.61879 11.8678C5.53271 11.8823 5.44439 11.8761 5.36122 11.8495C5.27806 11.823 5.20245 11.7769 5.14072 11.7152C5.07898 11.6535 5.03292 11.5779 5.00638 11.4947C4.97984 11.4115 4.97358 11.3232 4.98814 11.2371L5.27164 9.558ZM10.8491 14.5633H5.11029C4.95684 14.5633 4.80968 14.5023 4.70117 14.3938C4.59267 14.2853 4.53171 14.1382 4.53171 13.9847C4.53171 13.8313 4.59267 13.6841 4.70117 13.5756C4.80968 13.4671 4.95684 13.4061 5.11029 13.4061H10.8491C11.0025 13.4061 11.1497 13.4671 11.2582 13.5756C11.3667 13.6841 11.4276 13.8313 11.4276 13.9847C11.4276 14.1382 11.3667 14.2853 11.2582 14.3938C11.1497 14.5023 11.0025 14.5633 10.8491 14.5633ZM11.7478 7.27843L9.57814 5.10943L10.2229 4.46464C10.5106 4.17693 10.9009 4.0153 11.3077 4.0153C11.5092 4.0153 11.7087 4.05498 11.8949 4.13208C12.081 4.20918 12.2501 4.32218 12.3926 4.46464C12.535 4.6071 12.648 4.77623 12.7251 4.96236C12.8022 5.1485 12.8419 5.34799 12.8419 5.54946C12.8419 5.75093 12.8022 5.95043 12.7251 6.13657C12.648 6.3227 12.535 6.49182 12.3926 6.63429L11.7478 7.27843ZM13.7696 14.5633H13.1666C13.0131 14.5633 12.866 14.5023 12.7575 14.3938C12.649 14.2853 12.588 14.1382 12.588 13.9847C12.588 13.8313 12.649 13.6841 12.7575 13.5756C12.866 13.4671 13.0131 13.4061 13.1666 13.4061H13.7696C13.923 13.4061 14.0702 13.4671 14.1787 13.5756C14.2872 13.6841 14.3481 13.8313 14.3481 13.9847C14.3481 14.1382 14.2872 14.2853 14.1787 14.3938C14.0702 14.5023 13.923 14.5633 13.7696 14.5633Z" fill="#7F8199"/>
</svg>
