<svg width="48" height="48" viewBox="0 0 48 48" fill="none" xmlns="http://www.w3.org/2000/svg">
<path d="M9 29.8273C9.41421 29.8273 9.75 29.4915 9.75 29.0773C9.75 28.6631 9.41421 28.3273 9 28.3273C8.58579 28.3273 8.25 28.6631 8.25 29.0773C8.25 29.4915 8.58579 29.8273 9 29.8273Z" fill="#1A1A1A"/>
<path d="M24 20.8273C19.451 20.8273 15.75 24.5283 15.75 29.0773C15.75 33.6263 19.451 37.3273 24 37.3273C28.549 37.3273 32.25 33.6263 32.25 29.0773C32.25 24.5283 28.549 20.8273 24 20.8273ZM24.037 28.3275C25.6742 28.3474 27 29.6855 27 31.3273C27 32.6731 26.1092 33.8148 24.8863 34.1937C24.8063 34.2186 24.75 34.2903 24.75 34.3741V35.0516C24.75 35.4511 24.4486 35.7998 24.05 35.8257C23.9475 35.8325 23.8447 35.8182 23.748 35.7837C23.6513 35.7492 23.5626 35.6952 23.4876 35.625C23.4126 35.5549 23.3529 35.47 23.312 35.3758C23.2711 35.2816 23.25 35.18 23.25 35.0773V34.3771C23.25 34.2946 23.1978 34.2196 23.1189 34.1953C21.9104 33.8233 21.025 32.7068 21.0005 31.3836C20.9928 30.9664 21.2997 30.596 21.7166 30.578C21.8178 30.5736 21.9189 30.5896 22.0137 30.6252C22.1085 30.6609 22.1951 30.7153 22.2683 30.7853C22.3415 30.8554 22.3998 30.9395 22.4396 31.0326C22.4794 31.1258 22.4999 31.226 22.4999 31.3273C22.4999 32.1782 23.212 32.8658 24.0716 32.8256C24.8347 32.7899 25.4626 32.1621 25.4982 31.399C25.5384 30.5395 24.8508 29.8273 23.9999 29.8273C22.3457 29.8273 20.9999 28.4815 20.9999 26.8273C20.9999 25.4815 21.8907 24.3398 23.1136 23.9609C23.1937 23.936 23.2499 23.8643 23.2499 23.7805V23.103C23.2499 22.7035 23.5513 22.3548 23.9499 22.3289C24.0524 22.3221 24.1552 22.3364 24.2519 22.3709C24.3487 22.4054 24.4373 22.4594 24.5123 22.5296C24.5873 22.5997 24.6471 22.6846 24.6879 22.7788C24.7288 22.873 24.7499 22.9746 24.7499 23.0773V23.7775C24.7499 23.86 24.8021 23.935 24.881 23.9593C26.0895 24.3313 26.9749 25.4478 26.9994 26.771C27.0071 27.1882 26.7002 27.5585 26.2833 27.5766C26.1821 27.581 26.081 27.565 25.9862 27.5294C25.8914 27.4937 25.8048 27.4393 25.7316 27.3693C25.6584 27.2992 25.6001 27.2151 25.5603 27.122C25.5205 27.0288 25.5 26.9286 25.5 26.8273C25.5 26.0002 24.8271 25.3273 24 25.3273C23.1676 25.3273 22.4913 26.009 22.5001 26.8434C22.5088 27.6712 23.2091 28.3175 24.037 28.3275Z" fill="#1A1A1A"/>
<path d="M45.75 16.3273H2.25C1.00941 16.3273 0 17.3367 0 18.5773V39.5773C0 40.8179 1.00941 41.8273 2.25 41.8273H45.75C46.9906 41.8273 48 40.8179 48 39.5773V18.5773C48 17.3366 46.9906 16.3273 45.75 16.3273ZM15.75 38.8273H6C5.58787 38.8273 5.2485 38.4949 5.25 38.0827C5.253 37.2514 4.57594 36.5743 3.74456 36.5773C3.33244 36.5788 3 36.2394 3 35.8273V22.3273C3 21.9152 3.33244 21.5758 3.74456 21.5773C4.57594 21.5803 5.253 20.9032 5.25 20.0719C5.2485 19.6597 5.58787 19.3273 6 19.3273H15.7243C16.1238 19.3273 16.4725 19.6287 16.4984 20.0273C16.5052 20.1298 16.4909 20.2326 16.4564 20.3293C16.4219 20.426 16.3679 20.5147 16.2977 20.5897C16.2276 20.6647 16.1427 20.7244 16.0485 20.7653C15.9543 20.8062 15.8527 20.8273 15.75 20.8273H6.86438C6.74325 20.8273 6.63637 20.9051 6.59822 21.0201C6.30047 21.9173 5.58994 22.6279 4.69284 22.9255C4.63679 22.944 4.58798 22.9796 4.55336 23.0274C4.51873 23.0752 4.50006 23.1327 4.5 23.1917V34.9628C4.5 35.084 4.57781 35.1908 4.69284 35.229C5.59003 35.5267 6.30056 36.2373 6.59822 37.1344C6.61667 37.1904 6.65232 37.2392 6.70011 37.2738C6.74789 37.3085 6.80537 37.3271 6.86438 37.3272H15.7242C16.1237 37.3272 16.4724 37.6286 16.4983 38.0272C16.5052 38.1297 16.4909 38.2325 16.4564 38.3293C16.4219 38.426 16.3679 38.5146 16.2977 38.5896C16.2276 38.6646 16.1428 38.7244 16.0485 38.7653C15.9543 38.8062 15.8527 38.8273 15.75 38.8273ZM11.25 29.0773C11.25 30.3179 10.2406 31.3273 9 31.3273C7.75941 31.3273 6.75 30.3179 6.75 29.0773C6.75 27.8367 7.75941 26.8273 9 26.8273C10.2406 26.8273 11.25 27.8366 11.25 29.0773ZM24 38.8273C18.6238 38.8273 14.25 34.4535 14.25 29.0773C14.25 23.7011 18.6238 19.3273 24 19.3273C29.3762 19.3273 33.75 23.7011 33.75 29.0773C33.75 34.4535 29.3762 38.8273 24 38.8273ZM45 35.8273C45 36.2394 44.6676 36.5788 44.2554 36.5773C43.4241 36.5743 42.747 37.2514 42.75 38.0827C42.7515 38.4949 42.4121 38.8273 42 38.8273H32.2757C31.8762 38.8273 31.5275 38.5259 31.5016 38.1273C31.4948 38.0248 31.5091 37.922 31.5436 37.8253C31.5781 37.7286 31.6321 37.6399 31.7023 37.5649C31.7724 37.4899 31.8573 37.4302 31.9515 37.3893C32.0457 37.3484 32.1473 37.3273 32.25 37.3273H41.1356C41.2567 37.3273 41.3636 37.2495 41.4018 37.1345C41.6995 36.2373 42.4101 35.5267 43.3072 35.2291C43.3632 35.2106 43.412 35.175 43.4466 35.1272C43.4812 35.0794 43.4999 35.0219 43.5 34.9629V23.1917C43.5 23.0706 43.4222 22.9637 43.3072 22.9255C42.41 22.6278 41.6994 21.9172 41.4018 21.0201C41.3833 20.9641 41.3477 20.9153 41.2999 20.8807C41.2521 20.8461 41.1946 20.8274 41.1356 20.8273H32.2758C31.8763 20.8273 31.5276 20.5259 31.5017 20.1273C31.4949 20.0248 31.5091 19.922 31.5437 19.8253C31.5782 19.7286 31.6322 19.6399 31.7024 19.5649C31.7725 19.4899 31.8573 19.4302 31.9516 19.3893C32.0458 19.3484 32.1474 19.3273 32.2501 19.3273H42.0001C42.4122 19.3273 42.7516 19.6597 42.7501 20.0719C42.7471 20.9032 43.4242 21.5803 44.2555 21.5773C44.6677 21.5758 45.0001 21.9152 45.0001 22.3273V35.8273H45ZM36.75 29.0773C36.75 27.8367 37.7594 26.8273 39 26.8273C40.2406 26.8273 41.25 27.8367 41.25 29.0773C41.25 30.3179 40.2406 31.3273 39 31.3273C37.7594 31.3273 36.75 30.3179 36.75 29.0773Z" fill="#1A1A1A"/>
<path d="M39 29.8273C39.4142 29.8273 39.75 29.4915 39.75 29.0773C39.75 28.6631 39.4142 28.3273 39 28.3273C38.5858 28.3273 38.25 28.6631 38.25 29.0773C38.25 29.4915 38.5858 29.8273 39 29.8273Z" fill="#1A1A1A"/>
<path d="M45.1827 12.492C45.0282 11.2521 43.892 10.3701 42.6384 10.5429L13.9877 14.6407C13.8725 14.6572 13.8846 14.8273 14.001 14.8273H45.262C45.2885 14.8273 45.3148 14.8217 45.3391 14.8107C45.3633 14.7998 45.3849 14.7838 45.4025 14.7639C45.4201 14.744 45.4333 14.7205 45.4411 14.6951C45.449 14.6697 45.4513 14.6429 45.448 14.6166L45.1827 12.492ZM40.9822 9.26446C41.0081 9.26074 41.033 9.25161 41.0552 9.23765C41.0773 9.22369 41.0963 9.20523 41.1109 9.18345C41.1255 9.16167 41.1353 9.13707 41.1397 9.11124C41.1442 9.08542 41.1431 9.05895 41.1367 9.03355L40.8476 7.87668C40.5439 6.65783 39.3012 5.92115 38.0726 6.25199L14.4962 12.864C14.3835 12.8956 14.4183 13.0637 14.5342 13.0471C20.4588 12.1999 36.6199 9.88902 40.9822 9.26446Z" fill="#1A1A1A"/>
</svg>
