<svg width="16" height="14" viewBox="0 0 16 14" fill="none" xmlns="http://www.w3.org/2000/svg">
<path fill-rule="evenodd" clip-rule="evenodd" d="M4.09064 0.333496C3.77442 0.336688 3.46677 0.43667 3.20909 0.619986C2.95141 0.803303 2.75607 1.06115 2.64935 1.35884H13.7347C13.6278 1.06085 13.4322 0.802779 13.1741 0.619437C12.9161 0.436094 12.608 0.336294 12.2915 0.333496H4.09064ZM2.03995 2.38418C1.63198 2.38672 1.24147 2.55005 0.953167 2.83871C0.664864 3.12738 0.502029 3.51809 0.5 3.92607V12.1249C0.5 12.9684 1.19646 13.6668 2.04188 13.6668H14.3441C14.7515 13.6638 15.1413 13.5002 15.4289 13.2115C15.7165 12.9228 15.8786 12.5324 15.8802 12.1249V3.92607C15.8786 3.5186 15.7165 3.12818 15.4289 2.83951C15.1413 2.55085 14.7515 2.38724 14.3441 2.38418H2.03995ZM8.18234 4.42907C8.47253 4.42326 8.71049 4.66122 8.70468 4.95141V9.86532L9.88286 8.68908C9.92876 8.63508 9.98536 8.59118 10.0491 8.56016C10.1128 8.52914 10.1823 8.51167 10.2531 8.50885C10.3239 8.50603 10.3945 8.51793 10.4605 8.54378C10.5265 8.56964 10.5864 8.6089 10.6365 8.65909C10.6865 8.70927 10.7256 8.76928 10.7513 8.83534C10.777 8.9014 10.7887 8.97206 10.7857 9.04287C10.7827 9.11368 10.765 9.1831 10.7338 9.24674C10.7026 9.31038 10.6586 9.36686 10.6045 9.41262L8.55378 11.4633C8.4577 11.559 8.32762 11.6127 8.19201 11.6127C8.0564 11.6127 7.92632 11.559 7.83024 11.4633L5.77955 9.41262C5.7093 9.34449 5.66002 9.25768 5.63753 9.16244C5.61504 9.0672 5.62027 8.96751 5.65262 8.87515C5.68497 8.78279 5.74307 8.70161 5.82007 8.64122C5.89707 8.58082 5.98975 8.54372 6.08715 8.53431C6.16365 8.5273 6.24075 8.53756 6.31274 8.56435C6.38474 8.59114 6.44979 8.63377 6.5031 8.68908L7.67934 9.86726V4.94948C7.67806 4.88215 7.69005 4.81523 7.71464 4.75253C7.73922 4.68984 7.77592 4.63261 7.82263 4.5841C7.86934 4.5356 7.92515 4.49677 7.98687 4.46983C8.04859 4.4429 8.11501 4.43032 8.18234 4.42907Z" fill="white"/>
</svg>
