<svg width="19" height="18" viewBox="0 0 19 18" fill="none" xmlns="http://www.w3.org/2000/svg">
<path d="M3.575 18H15.425C17.15 18 18.5 16.65 18.5 14.925V3.075C18.5 1.35 17.15 0 15.425 0H3.575C1.85 0 0.5 1.35 0.5 3.075V14.925C0.5 16.65 1.85 18 3.575 18ZM7.55 4.125H14.75C15.125 4.125 15.5 4.425 15.5 4.875C15.5 5.25 15.125 5.625 14.75 5.625H7.55C7.1 5.625 6.8 5.25 6.8 4.875C6.8 4.425 7.1 4.125 7.55 4.125ZM7.55 8.25H14.75C15.125 8.25 15.5 8.625 15.5 9C15.5 9.375 15.125 9.75 14.75 9.75H7.55C7.1 9.75 6.8 9.375 6.8 9C6.8 8.625 7.1 8.25 7.55 8.25ZM7.55 12.375H14.75C15.125 12.375 15.5 12.75 15.5 13.125C15.5 13.575 15.125 13.875 14.75 13.875H7.55C7.1 13.875 6.8 13.575 6.8 13.125C6.8 12.75 7.1 12.375 7.55 12.375ZM3.8 4.2C4.175 3.975 4.475 4.05 4.775 4.275C5.075 4.5 5.075 5.025 4.775 5.325C4.475 5.7 3.95 5.625 3.725 5.4C3.425 5.1 3.35 4.575 3.8 4.2ZM4.775 9.525C4.475 9.825 4.025 9.825 3.725 9.525C3.5 9.3 3.425 8.85 3.725 8.475C4.025 8.175 4.475 8.175 4.775 8.475C5.075 8.775 5.075 9.225 4.775 9.525ZM3.725 12.6C3.95 12.3 4.55 12.3 4.775 12.6C5.075 12.9 5.075 13.425 4.775 13.65C4.475 13.95 4.025 13.95 3.725 13.65C3.425 13.425 3.425 12.975 3.725 12.6Z" fill="#A5A6B5"/>
</svg>
