<svg width="19" height="18" viewBox="0 0 19 18" fill="none" xmlns="http://www.w3.org/2000/svg">
<path d="M5.75 7.875H2.375C1.77826 7.875 1.20597 7.63795 0.78401 7.21599C0.362053 6.79403 0.125 6.22174 0.125 5.625V2.25C0.125 1.65326 0.362053 1.08097 0.78401 0.65901C1.20597 0.237053 1.77826 0 2.375 0H5.75C6.34674 0 6.91903 0.237053 7.34099 0.65901C7.76295 1.08097 8 1.65326 8 2.25V5.625C8 6.22174 7.76295 6.79403 7.34099 7.21599C6.91903 7.63795 6.34674 7.875 5.75 7.875ZM14.1875 7.875C13.1432 7.875 12.1417 7.46016 11.4033 6.72173C10.6648 5.98331 10.25 4.98179 10.25 3.9375C10.25 2.89321 10.6648 1.89169 11.4033 1.15327C12.1417 0.414843 13.1432 0 14.1875 0C15.2318 0 16.2333 0.414843 16.9717 1.15327C17.7102 1.89169 18.125 2.89321 18.125 3.9375C18.125 4.98179 17.7102 5.98331 16.9717 6.72173C16.2333 7.46016 15.2318 7.875 14.1875 7.875ZM15.875 18H12.5C11.9033 18 11.331 17.7629 10.909 17.341C10.4871 16.919 10.25 16.3467 10.25 15.75V12.375C10.25 11.7783 10.4871 11.206 10.909 10.784C11.331 10.3621 11.9033 10.125 12.5 10.125H15.875C16.4717 10.125 17.044 10.3621 17.466 10.784C17.8879 11.206 18.125 11.7783 18.125 12.375V15.75C18.125 16.3467 17.8879 16.919 17.466 17.341C17.044 17.7629 16.4717 18 15.875 18ZM5.75 18H2.375C1.77826 18 1.20597 17.7629 0.78401 17.341C0.362053 16.919 0.125 16.3467 0.125 15.75V12.375C0.125 11.7783 0.362053 11.206 0.78401 10.784C1.20597 10.3621 1.77826 10.125 2.375 10.125H5.75C6.34674 10.125 6.91903 10.3621 7.34099 10.784C7.76295 11.206 8 11.7783 8 12.375V15.75C8 16.3467 7.76295 16.919 7.34099 17.341C6.91903 17.7629 6.34674 18 5.75 18Z" fill="#7F8199"/>
</svg>
