<svg width="23" height="18" viewBox="0 0 23 18" fill="none" xmlns="http://www.w3.org/2000/svg">
<path d="M12.6001 0.708043C13.2826 0.243081 14.0902 -0.0037972 14.9161 4.41557e-05C16.03 4.41557e-05 17.0983 0.442542 17.8859 1.23019C18.6736 2.01784 19.1161 3.08613 19.1161 4.20003C19.1161 5.31394 18.6736 6.38222 17.8859 7.16987C17.0983 7.95753 16.03 8.40002 14.9161 8.40002C14.0902 8.40386 13.2826 8.15699 12.6001 7.69203C13.329 6.67354 13.721 5.45249 13.721 4.20003C13.721 2.94758 13.329 1.72652 12.6001 0.708043Z" fill="#A5A6B5"/>
<path d="M16.9001 15.6V18H0.100098V15.6C0.100098 15.6 0.100098 10.8 8.50008 10.8C16.9001 10.8 16.9001 15.6 16.9001 15.6ZM12.7001 4.19999C12.7001 3.36931 12.4537 2.55729 11.9922 1.8666C11.5307 1.17592 10.8748 0.637594 10.1073 0.319707C9.3399 0.00181979 8.49542 -0.081354 7.6807 0.0807035C6.86598 0.242761 6.11762 0.642771 5.53024 1.23015C4.94286 1.81753 4.54285 2.5659 4.38079 3.38061C4.21873 4.19533 4.30191 5.03981 4.61979 5.80726C4.93768 6.57471 5.476 7.23065 6.16669 7.69216C6.85737 8.15366 7.6694 8.39998 8.50008 8.39998C9.61398 8.39998 10.6823 7.95748 11.4699 7.16983C12.2576 6.38218 12.7001 5.3139 12.7001 4.19999Z" fill="#A5A6B5"/>
<path d="M16.8685 13.1258C16.4414 12.2965 15.8378 11.5709 15.1001 11C22.3721 11.444 22.3721 15.8 22.3721 15.8V18H17.5721V15.8C17.5357 14.8679 17.2956 13.9551 16.8685 13.1258Z" fill="#A5A6B5"/>
</svg>
