<svg width="20" height="18" viewBox="0 0 20 18" fill="none" xmlns="http://www.w3.org/2000/svg">
<path fill-rule="evenodd" clip-rule="evenodd" d="M6.28503 16.3136C6.28503 16.7608 6.10736 17.1898 5.79109 17.5061C5.47483 17.8223 5.04588 18 4.59861 18H2.58681C2.13954 18 1.7106 17.8223 1.39433 17.5061C1.07807 17.1898 0.900391 16.7608 0.900391 16.3136V8.75826C0.900391 7.82713 1.65567 7.07185 2.58681 7.07185H4.59861C5.5306 7.07185 6.28503 7.82713 6.28503 8.75826V16.3136ZM13.0095 11.4922V16.3136C13.0096 16.5351 12.966 16.7544 12.8813 16.9591C12.7966 17.1637 12.6724 17.3497 12.5158 17.5063C12.3591 17.6629 12.1732 17.7871 11.9685 17.8719C11.7639 17.9566 11.5445 18.0001 11.323 18H9.18465C8.73752 17.9995 8.30884 17.8217 7.99267 17.5056C7.6765 17.1894 7.49868 16.7607 7.49823 16.3136V11.4922C7.49823 11.0449 7.67591 10.616 7.99217 10.2997C8.30844 9.98347 8.73738 9.8058 9.18465 9.8058H11.323C11.7703 9.8058 12.1993 9.98347 12.5155 10.2997C12.8318 10.616 13.0095 11.0449 13.0095 11.4922ZM19.6065 7.16105V16.3136C19.6066 16.5351 19.563 16.7544 19.4783 16.9591C19.3936 17.1637 19.2694 17.3497 19.1128 17.5063C18.9561 17.6629 18.7702 17.7871 18.5655 17.8719C18.3609 17.9566 18.1415 18.0001 17.92 18H15.9915C15.5442 18 15.1153 17.8223 14.799 17.5061C14.4827 17.1898 14.3051 16.7608 14.3051 16.3136V7.16105C14.305 6.93956 14.3485 6.72021 14.4332 6.51556C14.5179 6.3109 14.6421 6.12495 14.7988 5.96833C14.9554 5.81171 15.1413 5.68749 15.346 5.60278C15.5506 5.51807 15.77 5.47452 15.9915 5.47464H17.92C18.3673 5.47464 18.7962 5.65231 19.1125 5.96858C19.4288 6.28484 19.6065 6.71379 19.6065 7.16105ZM4.09396 3.50786C3.89388 3.61151 3.66081 3.63143 3.44604 3.56323C3.23126 3.49504 3.05238 3.34432 2.94873 3.14424C2.84508 2.94415 2.82516 2.71109 2.89335 2.49631C2.96155 2.28154 3.11226 2.10265 3.31235 1.999L6.05479 0.577656C6.47443 0.360244 6.94584 0.262594 7.41731 0.295414C7.88878 0.328234 8.34211 0.490258 8.72757 0.763714L11.566 2.77807C11.8676 2.99216 12.2712 2.99301 12.5745 2.78062L16.316 0.152866C16.5005 0.0241535 16.7284 -0.0261639 16.9499 0.0129458C17.1714 0.0520556 17.3684 0.177401 17.4976 0.361498C17.6268 0.545595 17.6777 0.77342 17.6392 0.99502C17.6007 1.21662 17.4759 1.41391 17.2922 1.54363L13.5506 4.17138C13.1157 4.47663 12.597 4.63978 12.0656 4.63841C11.5343 4.63704 11.0164 4.47122 10.5831 4.16373L7.74461 2.14938C7.61381 2.05639 7.45988 2.00131 7.29978 1.99022C7.13968 1.97913 6.97963 2.01245 6.83726 2.08651L4.09396 3.50786Z" fill="#A5A6B5"/>
</svg>
