<svg width="19" height="18" viewBox="0 0 19 18" fill="none" xmlns="http://www.w3.org/2000/svg">
<path d="M14.5164 11.6194C14.4562 11.5595 14.3747 11.5259 14.2898 11.5259C14.2049 11.5259 14.1235 11.5595 14.0633 11.6194L13.8351 11.8475L13.382 11.3912C13.4418 11.331 13.4754 11.2495 13.4754 11.1646C13.4754 11.0797 13.4418 10.9983 13.382 10.9381L12.4725 10.0286C12.4426 9.99849 12.4071 9.97459 12.3679 9.95827C12.3288 9.94196 12.2868 9.93356 12.2444 9.93356C12.2019 9.93356 12.1599 9.94196 12.1208 9.95827C12.0816 9.97459 12.0461 9.99849 12.0162 10.0286L11.0521 9.06453L13.4495 6.66396C14.0257 6.96623 14.6743 7.10356 15.3236 7.06084C15.9729 7.01811 16.5979 6.79698 17.1296 6.4218C17.6612 6.04662 18.0791 5.53196 18.337 4.93452C18.5949 4.33708 18.6829 3.68003 18.5913 3.03578C18.5831 2.97668 18.5586 2.92103 18.5206 2.87506C18.4825 2.82908 18.4325 2.7946 18.3759 2.77548C18.3204 2.75802 18.2612 2.75598 18.2046 2.76956C18.148 2.78315 18.0961 2.81185 18.0546 2.8526L16.4799 4.42728L14.6706 3.95487L14.195 2.15846L15.7697 0.58379C15.8104 0.54223 15.8391 0.490383 15.8527 0.433783C15.8663 0.377183 15.8643 0.317957 15.8468 0.262428C15.8277 0.205913 15.7932 0.155837 15.7472 0.117809C15.7013 0.0797817 15.6456 0.0553032 15.5865 0.0471153C14.9852 -0.037301 14.3722 0.0346197 13.8067 0.255944C13.2412 0.477269 12.7423 0.840534 12.358 1.31072C11.9737 1.78091 11.717 2.34217 11.6127 2.94039C11.5084 3.53861 11.5599 4.15362 11.7623 4.72614L9.23641 7.24883L4.65379 2.66621L4.4449 1.625C4.43592 1.58107 4.41784 1.5395 4.39183 1.50297C4.36581 1.46644 4.33244 1.43576 4.29386 1.4129L2.02184 0.0471153C1.96045 0.0103553 1.88854 -0.00486477 1.81752 0.00386712C1.7465 0.012599 1.68043 0.0447834 1.62977 0.0953196L0.72032 1.00477C0.669783 1.05543 0.637599 1.1215 0.628867 1.19252C0.620135 1.26354 0.635355 1.33545 0.672115 1.39684L2.0379 3.66886C2.06076 3.70744 2.09144 3.74081 2.12797 3.76683C2.1645 3.79284 2.20607 3.81092 2.25 3.8199L3.29121 4.02879L7.87383 8.61141L5.35114 11.1341C4.64403 10.8815 3.87486 10.8607 3.15511 11.0746C2.43535 11.2885 1.80241 11.726 1.34799 12.3238C0.893567 12.9215 0.641286 13.6484 0.627703 14.3992C0.61412 15.1499 0.839941 15.8855 1.27244 16.4993C1.70494 17.1131 2.32165 17.5732 3.03319 17.813C3.74474 18.0528 4.51416 18.0598 5.22994 17.8329C5.94573 17.6061 6.5707 17.1573 7.01428 16.5514C7.45787 15.9456 7.69702 15.2143 7.69708 14.4634C7.69684 13.8934 7.55787 13.332 7.29217 12.8277L9.69274 10.4303L10.6568 11.3944C10.6267 11.4243 10.6028 11.4598 10.5865 11.499C10.5702 11.5381 10.5618 11.5801 10.5618 11.6226C10.5618 11.665 10.5702 11.707 10.5865 11.7462C10.6028 11.7853 10.6267 11.8209 10.6568 11.8507L11.5534 12.757C11.6136 12.8168 11.6951 12.8504 11.78 12.8504C11.8649 12.8504 11.9463 12.8168 12.0065 12.757L12.4629 13.2101L12.2347 13.4383C12.1749 13.4985 12.1413 13.5799 12.1413 13.6648C12.1413 13.7497 12.1749 13.8312 12.2347 13.8914L15.879 17.5292C16.1807 17.8309 16.5899 18.0004 17.0166 18.0004C17.4433 18.0004 17.8525 17.8309 18.1542 17.5292C18.4559 17.2275 18.6254 16.8183 18.6254 16.3916C18.6254 15.9649 18.4559 15.5557 18.1542 15.254L14.5164 11.6194ZM5.59538 14.849L4.54774 15.8967L3.11125 15.5143L2.72883 14.0778L3.77647 13.0301L5.21296 13.4126L5.59538 14.849ZM11.3349 11.6194L12.2444 10.7099L12.6975 11.1662L11.7912 12.0725L11.3349 11.6194Z" fill="#7F8199"/>
</svg>
