<svg width="18" height="17" viewBox="0 0 18 17" fill="none" xmlns="http://www.w3.org/2000/svg">
<path d="M14.575 2.47354C13.7956 1.68653 12.8673 1.06251 11.8444 0.637852C10.8214 0.21319 9.7241 -0.00362368 8.61648 4.58107e-05C3.97549 4.58107e-05 0.193 3.78254 0.193 8.42352C0.193 9.91102 0.583999 11.356 1.315 12.631L0.125 17L4.58749 15.827C5.81998 16.4985 7.20548 16.8555 8.61648 16.8555C13.2575 16.8555 17.04 13.073 17.04 8.43202C17.04 6.17953 16.1645 4.06304 14.575 2.47354ZM8.61648 15.4275C7.35848 15.4275 6.12598 15.0875 5.04649 14.45L4.79149 14.297L2.13949 14.994L2.84499 12.41L2.67499 12.1465C1.97591 11.0305 1.60478 9.7404 1.604 8.42352C1.604 4.56453 4.74899 1.41954 8.60798 1.41954C10.478 1.41954 12.2375 2.15054 13.555 3.47654C14.2074 4.12582 14.7245 4.89819 15.0761 5.74886C15.4278 6.59953 15.607 7.51155 15.6035 8.43202C15.6205 12.291 12.4755 15.4275 8.61648 15.4275ZM12.4585 10.1915C12.246 10.0895 11.209 9.57952 11.022 9.50302C10.8265 9.43502 10.6905 9.40102 10.546 9.60502C10.4015 9.81752 10.002 10.2935 9.88297 10.4295C9.76397 10.574 9.63647 10.591 9.42397 10.4805C9.21148 10.3785 8.53148 10.149 7.73248 9.43502C7.10348 8.87402 6.68698 8.18552 6.55948 7.97303C6.44048 7.76053 6.54248 7.65003 6.65298 7.53953C6.74648 7.44603 6.86548 7.29303 6.96748 7.17403C7.06948 7.05503 7.11198 6.96153 7.17998 6.82553C7.24798 6.68103 7.21398 6.56203 7.16298 6.46003C7.11198 6.35803 6.68698 5.32103 6.51698 4.89603C6.34698 4.48803 6.16848 4.53903 6.04098 4.53053H5.63299C5.48849 4.53053 5.26749 4.58153 5.07199 4.79403C4.88499 5.00653 4.34099 5.51653 4.34099 6.55353C4.34099 7.59053 5.09749 8.59352 5.19949 8.72952C5.30149 8.87402 6.68698 10.999 8.79498 11.9085C9.29648 12.1295 9.68747 12.257 9.99347 12.3505C10.495 12.512 10.954 12.4865 11.3195 12.4355C11.7275 12.376 12.569 11.9255 12.739 11.4325C12.9175 10.9395 12.9175 10.523 12.858 10.4295C12.7985 10.336 12.671 10.2935 12.4585 10.1915Z" fill="white" fill-opacity="0.8"/>
</svg>
