<svg width="18" height="17" viewBox="0 0 18 17" fill="none" xmlns="http://www.w3.org/2000/svg">
<path fill-rule="evenodd" clip-rule="evenodd" d="M8.69343 4.23902C8.6934 4.28653 8.70273 4.33358 8.7209 4.37749C8.73907 4.42139 8.76571 4.46128 8.7993 4.49487C8.8329 4.52847 8.87278 4.55512 8.91668 4.57329C8.96058 4.59146 9.00763 4.6008 9.05514 4.60077H10.6567V6.20239C10.6576 6.29774 10.6961 6.38888 10.7638 6.45598C10.8316 6.52309 10.9231 6.56073 11.0184 6.56073C11.1138 6.56073 11.2053 6.52309 11.273 6.45598C11.3408 6.38888 11.3793 6.29774 11.3802 6.20239V4.60077H12.9818C13.0777 4.60077 13.1697 4.56266 13.2376 4.49482C13.3054 4.42698 13.3435 4.33496 13.3435 4.23902C13.3435 4.14308 13.3054 4.05107 13.2376 3.98323C13.1697 3.91538 13.0777 3.87727 12.9818 3.87727H11.3802V2.27575C11.3806 2.22796 11.3716 2.18055 11.3536 2.13627C11.3356 2.09199 11.3091 2.05171 11.2754 2.01775C11.2418 1.9838 11.2018 1.95685 11.1577 1.93846C11.1135 1.92006 11.0662 1.91059 11.0184 1.91059C10.9706 1.91059 10.9233 1.92006 10.8792 1.93846C10.8351 1.95685 10.7951 1.9838 10.7614 2.01775C10.7278 2.05171 10.7012 2.09199 10.6832 2.13627C10.6653 2.18055 10.6562 2.22796 10.6567 2.27575V3.87727H9.05514C8.95921 3.87728 8.8672 3.9154 8.79937 3.98324C8.73153 4.05108 8.69343 4.14309 8.69343 4.23902ZM11.0185 0.478796C11.7622 0.478821 12.4892 0.699379 13.1076 1.11258C13.7259 1.52578 14.2079 2.11306 14.4924 2.80016C14.777 3.48726 14.8515 4.24332 14.7064 4.97273C14.5613 5.70215 14.2031 6.37215 13.6772 6.89801C13.1513 7.42388 12.4813 7.782 11.7519 7.92707C11.0225 8.07215 10.2664 7.99767 9.57934 7.71306C8.89225 7.42844 8.30499 6.94648 7.89182 6.3281C7.47865 5.70973 7.25812 4.98273 7.25813 4.23902C7.25922 3.24206 7.65576 2.28624 8.36074 1.58129C9.06571 0.876347 10.0215 0.479848 11.0185 0.478796ZM6.53462 4.24701L6.53552 4.3061C6.57153 6.75146 8.57257 8.72275 11.0185 8.72275C12.0533 8.7213 13.0558 8.36266 13.8566 7.70744C14.6575 7.05223 15.2076 6.14061 15.414 5.12666L15.4373 5.01081C15.4779 4.77277 15.4999 4.53192 15.5032 4.29045L16.4706 4.37959C16.639 4.3943 16.7958 4.47182 16.9096 4.59675C17.0235 4.72168 17.0863 4.88488 17.0854 5.05394V8.66869C17.0846 9.29119 16.837 9.88798 16.3968 10.3282C15.9566 10.7683 15.3598 11.016 14.7373 11.0167H6.48169C6.24694 11.0181 6.0223 11.1124 5.8568 11.2789C5.69131 11.4454 5.59842 11.6706 5.59842 11.9053C5.59842 12.1401 5.69131 12.3653 5.8568 12.5318C6.0223 12.6983 6.24694 12.7925 6.48169 12.7939H15.2164C15.25 12.7939 15.2835 12.7936 15.3171 12.7936C15.7051 12.7932 16.0826 12.9203 16.3913 13.1555C16.7 13.3906 16.9228 13.7206 17.0256 14.0948C17.1284 14.469 17.1053 14.8666 16.96 15.2264C16.8147 15.5862 16.5552 15.8882 16.2214 16.0861C15.8876 16.284 15.498 16.3667 15.1126 16.3214C14.7272 16.2762 14.3673 16.1056 14.0884 15.8358C13.8095 15.5661 13.6269 15.2121 13.5688 14.8284C13.5108 14.4448 13.5804 14.0527 13.767 13.7124L13.8744 13.5174H8.58409L8.69153 13.7124C8.84449 13.9911 8.91951 14.3058 8.9087 14.6234C8.8979 14.9411 8.80167 15.25 8.63013 15.5176C8.4586 15.7852 8.21811 16.0016 7.93397 16.1441C7.64982 16.2865 7.33254 16.3498 7.01549 16.3271C6.69844 16.3045 6.39335 16.1968 6.13234 16.0154C5.87132 15.834 5.66402 15.5856 5.53225 15.2964C5.40048 15.0071 5.34912 14.6877 5.38356 14.3717C5.41801 14.0557 5.53699 13.7549 5.72798 13.5008L5.81799 13.3813L5.68796 13.3073C5.44896 13.1723 5.24845 12.9784 5.10546 12.744C4.96247 12.5097 4.88175 12.2427 4.87097 11.9684C4.86018 11.6941 4.91969 11.4216 5.04384 11.1767C5.16799 10.9319 5.35266 10.7228 5.58032 10.5694L5.71531 10.478L5.59745 10.3654C5.36742 10.1467 5.18427 9.8835 5.05914 9.5918C4.93402 9.3001 4.86952 8.986 4.86958 8.66859V1.56491L0.960772 0.80053C0.913937 0.791645 0.869321 0.773588 0.829489 0.747399C0.789657 0.72121 0.755395 0.687406 0.728673 0.647929C0.701951 0.608453 0.683296 0.564083 0.673781 0.517372C0.664267 0.470661 0.66408 0.42253 0.673232 0.375746C0.682383 0.328962 0.700693 0.284449 0.727108 0.244767C0.753523 0.205084 0.787522 0.171015 0.827149 0.144517C0.866777 0.11802 0.911252 0.0996179 0.958016 0.0903689C1.00478 0.08112 1.05291 0.0812068 1.09964 0.0906242L5.0462 0.862479C5.20015 0.892878 5.33881 0.975706 5.43856 1.09686C5.5383 1.21801 5.59297 1.36999 5.59325 1.52692V3.37434L6.59962 3.46768C6.55575 3.72512 6.534 3.98585 6.53462 4.24701Z" fill="white"/>
</svg>
