<svg width="35" height="35" viewBox="0 0 35 35" fill="none" xmlns="http://www.w3.org/2000/svg">
<path fill-rule="evenodd" clip-rule="evenodd" d="M17.5 0C7.84 0 0 7.84 0 17.5C0 27.16 7.84 35 17.5 35C27.16 35 35 27.16 35 17.5C35 7.84 27.16 0 17.5 0ZM26.075 23.6075L23.625 26.0575C23.275 26.4075 22.7325 26.4075 22.3825 26.0575L16.415 20.09C14.28 20.8425 11.795 20.3875 10.08 18.6725C8.1375 16.73 7.805 13.79 9.0475 11.4975L13.16 15.61L15.6275 13.1425L11.515 9.0475C13.825 7.805 16.7475 8.1375 18.69 10.08C20.405 11.795 20.86 14.28 20.1075 16.415L26.075 22.3825C26.4075 22.715 26.4075 23.275 26.075 23.6075Z" fill="#4979D1"/>
</svg>
